<svg id="wave" style="transform:rotate(0deg); transition: 0.3s" viewBox="0 0 1440 360" version="1.1" xmlns="http://www.w3.org/2000/svg"><defs><linearGradient id="sw-gradient-1" x1="0" x2="0" y1="1" y2="0"><stop stop-color="rgba(44.501, 131.44, 209.882, 1)" offset="0%"></stop><stop stop-color="rgba(62, 194, 243, 1)" offset="100%"></stop></linearGradient></defs><path style="transform:translate(0, 50px); opacity:0.9" fill="url(#sw-gradient-1)" d="M0,324L60,288C120,252,240,180,360,132C480,84,600,60,720,66C840,72,960,108,1080,108C1200,108,1320,72,1440,66C1560,60,1680,84,1800,96C1920,108,2040,108,2160,132C2280,156,2400,204,2520,240C2640,276,2760,300,2880,306C3000,312,3120,300,3240,258C3360,216,3480,144,3600,150C3720,156,3840,240,3960,246C4080,252,4200,180,4320,132C4440,84,4560,60,4680,48C4800,36,4920,36,5040,60C5160,84,5280,132,5400,144C5520,156,5640,132,5760,150C5880,168,6000,228,6120,258C6240,288,6360,288,6480,264C6600,240,6720,192,6840,192C6960,192,7080,240,7200,222C7320,204,7440,120,7560,96C7680,72,7800,108,7920,138C8040,168,8160,192,8280,168C8400,144,8520,72,8580,36L8640,0L8640,360L8580,360C8520,360,8400,360,8280,360C8160,360,8040,360,7920,360C7800,360,7680,360,7560,360C7440,360,7320,360,7200,360C7080,360,6960,360,6840,360C6720,360,6600,360,6480,360C6360,360,6240,360,6120,360C6000,360,5880,360,5760,360C5640,360,5520,360,5400,360C5280,360,5160,360,5040,360C4920,360,4800,360,4680,360C4560,360,4440,360,4320,360C4200,360,4080,360,3960,360C3840,360,3720,360,3600,360C3480,360,3360,360,3240,360C3120,360,3000,360,2880,360C2760,360,2640,360,2520,360C2400,360,2280,360,2160,360C2040,360,1920,360,1800,360C1680,360,1560,360,1440,360C1320,360,1200,360,1080,360C960,360,840,360,720,360C600,360,480,360,360,360C240,360,120,360,60,360L0,360Z"></path></svg>