<svg id="wave" style="transform:rotate(0deg); transition: 0.3s" viewBox="0 0 1440 360" version="1.1" xmlns="http://www.w3.org/2000/svg"><defs><linearGradient id="sw-gradient-3" x1="0" x2="0" y1="1" y2="0"><stop stop-color="rgba(36.579, 171.025, 205.328, 1)" offset="0%"></stop><stop stop-color="rgba(11, 180.601, 255, 1)" offset="100%"></stop></linearGradient></defs><path style="transform:translate(0, 150px); opacity:0.7" fill="url(#sw-gradient-3)" d="M0,108L60,114C120,120,240,132,360,156C480,180,600,216,720,210C840,204,960,156,1080,126C1200,96,1320,84,1440,66C1560,48,1680,24,1800,30C1920,36,2040,72,2160,108C2280,144,2400,180,2520,216C2640,252,2760,288,2880,300C3000,312,3120,300,3240,300C3360,300,3480,312,3600,300C3720,288,3840,252,3960,246C4080,240,4200,264,4320,270C4440,276,4560,264,4680,264C4800,264,4920,276,5040,252C5160,228,5280,168,5400,150C5520,132,5640,156,5760,186C5880,216,6000,252,6120,228C6240,204,6360,120,6480,90C6600,60,6720,84,6840,84C6960,84,7080,60,7200,84C7320,108,7440,180,7560,180C7680,180,7800,108,7920,90C8040,72,8160,108,8280,150C8400,192,8520,240,8580,264L8640,288L8640,360L8580,360C8520,360,8400,360,8280,360C8160,360,8040,360,7920,360C7800,360,7680,360,7560,360C7440,360,7320,360,7200,360C7080,360,6960,360,6840,360C6720,360,6600,360,6480,360C6360,360,6240,360,6120,360C6000,360,5880,360,5760,360C5640,360,5520,360,5400,360C5280,360,5160,360,5040,360C4920,360,4800,360,4680,360C4560,360,4440,360,4320,360C4200,360,4080,360,3960,360C3840,360,3720,360,3600,360C3480,360,3360,360,3240,360C3120,360,3000,360,2880,360C2760,360,2640,360,2520,360C2400,360,2280,360,2160,360C2040,360,1920,360,1800,360C1680,360,1560,360,1440,360C1320,360,1200,360,1080,360C960,360,840,360,720,360C600,360,480,360,360,360C240,360,120,360,60,360L0,360Z"></path></svg>