<svg id="wave" style="transform:rotate(0deg); transition: 0.3s" viewBox="0 0 1440 360" version="1.1" xmlns="http://www.w3.org/2000/svg"><defs><linearGradient id="sw-gradient-0" x1="0" x2="0" y1="1" y2="0"><stop stop-color="rgba(81, 131, 198, 1)" offset="0%"></stop><stop stop-color="rgba(81, 131, 198, 1)" offset="100%"></stop></linearGradient></defs><path style="transform:translate(0, 0px); opacity:1" fill="url(#sw-gradient-0)" d="M0,72L60,96C120,120,240,168,360,162C480,156,600,96,720,60C840,24,960,12,1080,48C1200,84,1320,168,1440,192C1560,216,1680,180,1800,192C1920,204,2040,264,2160,288C2280,312,2400,300,2520,300C2640,300,2760,312,2880,270C3000,228,3120,132,3240,78C3360,24,3480,12,3600,30C3720,48,3840,96,3960,126C4080,156,4200,168,4320,150C4440,132,4560,84,4680,54C4800,24,4920,12,5040,30C5160,48,5280,96,5400,108C5520,120,5640,96,5760,90C5880,84,6000,96,6120,96C6240,96,6360,84,6480,114C6600,144,6720,216,6840,216C6960,216,7080,144,7200,138C7320,132,7440,192,7560,216C7680,240,7800,228,7920,192C8040,156,8160,96,8280,78C8400,60,8520,84,8580,96L8640,108L8640,360L8580,360C8520,360,8400,360,8280,360C8160,360,8040,360,7920,360C7800,360,7680,360,7560,360C7440,360,7320,360,7200,360C7080,360,6960,360,6840,360C6720,360,6600,360,6480,360C6360,360,6240,360,6120,360C6000,360,5880,360,5760,360C5640,360,5520,360,5400,360C5280,360,5160,360,5040,360C4920,360,4800,360,4680,360C4560,360,4440,360,4320,360C4200,360,4080,360,3960,360C3840,360,3720,360,3600,360C3480,360,3360,360,3240,360C3120,360,3000,360,2880,360C2760,360,2640,360,2520,360C2400,360,2280,360,2160,360C2040,360,1920,360,1800,360C1680,360,1560,360,1440,360C1320,360,1200,360,1080,360C960,360,840,360,720,360C600,360,480,360,360,360C240,360,120,360,60,360L0,360Z"></path></svg>