<svg id="wave" style="transform:rotate(0deg); transition: 0.3s" viewBox="0 0 1440 360" version="1.1" xmlns="http://www.w3.org/2000/svg"><defs><linearGradient id="sw-gradient-2" x1="0" x2="0" y1="1" y2="0"><stop stop-color="rgba(212.75, 220.621, 223.542, 1)" offset="0%"></stop><stop stop-color="rgba(239.48, 235.036, 225.214, 1)" offset="100%"></stop></linearGradient></defs><path style="transform:translate(0, 100px); opacity:0.8" fill="url(#sw-gradient-2)" d="M0,252L60,246C120,240,240,228,360,198C480,168,600,120,720,90C840,60,960,48,1080,48C1200,48,1320,60,1440,54C1560,48,1680,24,1800,48C1920,72,2040,144,2160,144C2280,144,2400,72,2520,90C2640,108,2760,216,2880,270C3000,324,3120,324,3240,294C3360,264,3480,204,3600,204C3720,204,3840,264,3960,282C4080,300,4200,276,4320,240C4440,204,4560,156,4680,144C4800,132,4920,156,5040,174C5160,192,5280,204,5400,210C5520,216,5640,216,5760,192C5880,168,6000,120,6120,114C6240,108,6360,144,6480,186C6600,228,6720,276,6840,246C6960,216,7080,108,7200,108C7320,108,7440,216,7560,246C7680,276,7800,228,7920,174C8040,120,8160,60,8280,84C8400,108,8520,216,8580,270L8640,324L8640,360L8580,360C8520,360,8400,360,8280,360C8160,360,8040,360,7920,360C7800,360,7680,360,7560,360C7440,360,7320,360,7200,360C7080,360,6960,360,6840,360C6720,360,6600,360,6480,360C6360,360,6240,360,6120,360C6000,360,5880,360,5760,360C5640,360,5520,360,5400,360C5280,360,5160,360,5040,360C4920,360,4800,360,4680,360C4560,360,4440,360,4320,360C4200,360,4080,360,3960,360C3840,360,3720,360,3600,360C3480,360,3360,360,3240,360C3120,360,3000,360,2880,360C2760,360,2640,360,2520,360C2400,360,2280,360,2160,360C2040,360,1920,360,1800,360C1680,360,1560,360,1440,360C1320,360,1200,360,1080,360C960,360,840,360,720,360C600,360,480,360,360,360C240,360,120,360,60,360L0,360Z"></path></svg>